# xmcd
#
# Track frame offsets:
#	150
#	19400
#	35482
#	54634
#	73976
#	93772
#	110443
#	143170
#	160464
#	182576
#	216917
#
# Disc length: 3259 seconds
#
# Revision: 1
# Processed by: cddbd v1.5.1PL0 Copyright (c) Steve Scherf et al.
# Submitted via: audiograbber 1.83.01
#
DISCID=a00cb90b
DTITLE=Shania TWAIN - Up - Live from Chicago [CD1]
DYEAR=2003
DGENRE=Country
TTITLE0=Man! I feel like a woman
TTITLE1=Up
TTITLE2=Honey I'm home
TTITLE3=She's not just a pretty face
TTITLE4=Forever and for always
TTITLE5=Ka-Ching
TTITLE6=When you kiss me
TTITLE7=Don't be stupid (you know I love you)
TTITLE8=That don't impress me much
TTITLE9=I'm gonna getcha good
TTITLE10=Form this moment on
EXTD=
EXTT0=
EXTT1=
EXTT2=
EXTT3=
EXTT4=
EXTT5=
EXTT6=
EXTT7=
EXTT8=
EXTT9=
EXTT10=
PLAYORDER=
